<svg class="svg-icon" style="width: 1em; height: 1em;vertical-align: middle;fill: currentColor;overflow: hidden;" viewBox="0 0 1024 1024" version="1.1" xmlns="http://www.w3.org/2000/svg"><path d="M814.193778 512a85.333333 85.333333 0 0 0 83.000889-65.649778l67.185777-283.420444A85.333333 85.333333 0 0 0 881.607111 56.888889H113.948444a56.888889 56.888889 0 0 0 0 113.777778h56.888889v483.555555A85.333333 85.333333 0 0 0 256.113778 739.555556h597.105778a56.888889 56.888889 0 0 0 0-113.777778H284.558222V512h529.635556z m-529.635556-341.333333h561.095111l-53.930666 227.555555H284.558222V170.666667z m28.444445 625.777777a85.333333 85.333333 0 1 0 0 170.666667 85.333333 85.333333 0 0 0 0-170.666667z m454.883555 0a85.333333 85.333333 0 1 0 0 170.552889 85.333333 85.333333 0 0 0 0-170.552889z" fill="" /></svg>