<svg class="svg-icon" style="width: 1em; height: 1em;vertical-align: middle;fill: currentColor;overflow: hidden;" viewBox="0 0 1024 1024" version="1.1" xmlns="http://www.w3.org/2000/svg"><path d="M846.7 803.8c86.1-59 141.3-149.4 141.3-251.7 0-104.8-58.4-197.7-148.2-256.1 8 30.8 12.2 62.8 12.2 95.4 0 112.4-48.9 215.9-137.6 292.5C632.1 754.2 524.2 793.1 410 793.1c-15.4 0-31.3-1.3-46.7-2.5 66.4 51.5 154.6 82.9 250.7 82.9 32.4 0 63.7-3.8 93.5-10 44.1 37 94 64 147.7 80.3 14.3 4.4 29.7 7.5 45.7 10 8.5 1.3 16.5-6.9 18.6-18.2 2.1-11.9-4.8-19.5-10.6-27.6C888.1 880.4 864.7 855.9 846.7 803.8z"  /><path d="M784 391.4C784 213.8 616.6 70 410 70S36 213.8 36 391.4c0 101.7 55.2 192.7 141.3 251.7-18.1 52.1-41.4 76.6-62.2 104.2-5.8 8.2-12.7 15.7-10.6 27.6 1.6 10.7 9 18.2 17 18.2 0.5 0 1.1 0 1.6 0 15.9-2.5 31.3-5.6 45.7-10 53.6-16.3 103.6-43.3 147.7-80.3 29.7 6.3 61.1 10 93.5 10C616.7 712.8 784 569.1 784 391.4z"  /></svg>