<svg class="svg-icon" style="width: 1.146484375em; height: 1em;vertical-align: middle;fill: currentColor;overflow: hidden;" viewBox="0 0 1174 1024" version="1.1" xmlns="http://www.w3.org/2000/svg"><path d="M108.493147 883.752752c10.187976-103.397121 269.222693-174.49619 476.883997-173.412362 216.765453 0 474.066046 82.154107 476.883996 173.412362 1.300593 43.353091-52.45724 79.986452-108.382726 108.382726l-802.032176-21.676545c-23.8442-23.193903-46.387807-53.757832-43.353091-86.706181z" fill="#D2EAFF" /><path d="M997.231505 467.996613a184.250635 184.250635 0 0 1-137.646063-58.960203c-66.76376 78.685859-208.094835 78.685859-274.858595 0-66.76376 78.685859-208.094835 78.685859-274.858594 0C220.127356 515.251482 0.110421 479.918713 0.110421 303.471634a14.30652 14.30652 0 0 1 3.901778-11.705334L94.403393 28.179509A33.165114 33.165114 0 0 1 125.834383 0H1040.584595a44.653683 44.653683 0 0 1 35.332769 23.627434L1166.308558 286.780694c0 3.901778 3.901778 7.803556 3.901778 11.705335 0 109.900085-86.706181 168.860288-173.412362 168.860288z m-101.446232-168.860288c0 74.567316 62.645216 94.292972 102.096528 94.292972a96.894157 96.894157 0 0 0 102.096528-89.957663L1017.390692 75.217612H153.363596L70.775958 306.939881c3.901778 70.665538 66.76376 86.706181 102.096529 86.706182 39.451312 0 102.096528-19.725656 102.096528-94.292972a35.549534 35.549534 0 0 1 70.882303 0c0 74.567316 62.861981 94.292972 102.096529 94.292972s102.096528-19.725656 102.096528-94.292972a35.332769 35.332769 0 1 1 70.665538 0c0 74.567316 62.861981 94.292972 102.096528 94.292972s102.096528-19.725656 102.096528-94.292972a35.549534 35.549534 0 0 1 70.882304 0z m82.370872 722.69602H192.598143a115.752752 115.752752 0 0 1-117.920406-117.703641V550.584251a37.066892 37.066892 0 0 1 39.234547-39.234547 37.066892 37.066892 0 0 1 39.451312 39.234547v353.544453a37.066892 37.066892 0 0 0 39.234547 39.234547h785.558002a37.066892 37.066892 0 0 0 39.234547-39.234547V550.584251a39.451312 39.451312 0 0 1 78.685859 0v353.544453a118.137172 118.137172 0 0 1-117.920406 117.703641zM298.59645 735.051651L455.317872 578.113463a39.017782 39.017782 0 1 0-55.058425-55.058425l-157.154953 157.154954a37.933954 37.933954 0 0 0 0 54.841659 35.549534 35.549534 0 0 0 27.529212 11.9221 35.116003 35.116003 0 0 0 27.529213-11.9221z m137.429297 98.19475l255.349703-255.132938a38.866046 38.866046 0 1 0-54.841659-55.058425L381.184087 778.404742a37.717189 37.717189 0 0 0 0 54.841659 37.500423 37.500423 0 0 0 54.84166 0z" fill="#2E85ED" /></svg>